<?xml version="1.0" standalone="no"?><!-- Generator: Gravit.io --><svg xmlns="http://www.w3.org/2000/svg" xmlns:xlink="http://www.w3.org/1999/xlink" style="isolation:isolate" viewBox="0 0 92 66" width="92" height="66"><g id="Group"><path d=" M 13.111 15.556 L 0 22 L 15.111 26 L 13.111 15.556 Z " fill="rgb(183,199,213)"/><path d=" M 7.111 18.444 L 14 13.111 L 14 18.444 L 7.111 18.444 Z " fill="rgb(221,222,255)"/><path d=" M 9.778 19.778 L 18.889 5.556 L 35.556 15.556 L 9.778 19.778 Z " fill="rgb(212,236,255)"/><path d=" M 9.778 19.778 L 40.444 53.778 L 35.556 15.556 L 9.778 19.778 Z " fill="rgb(169,216,255)"/><path d=" M 35.556 15.556 L 55.778 0 L 56.222 27.111 L 35.556 15.556 Z " fill="rgb(212,236,255)"/><path d=" M 40.444 53.778 L 56.222 27.111 L 35.556 15.556 L 40.444 53.778 Z " fill="rgb(192,227,255)"/><path d=" M 55.778 0 L 66.889 13.111 L 56.222 27.111 L 55.778 0 Z " fill="rgb(152,209,255)"/><path d=" M 40.444 53.778 L 72.889 56.667 L 56.222 27.111 L 40.444 53.778 Z " fill="rgb(169,216,255)"/><path d=" M 60.222 21.333 L 92 18.444 L 55.778 11.111 L 60.222 21.333 Z " fill="rgb(197,229,255)"/><path d=" M 76.889 34.889 L 90 47.556 L 72.889 56.667 L 76.889 34.889 Z " fill="rgb(157,209,255)"/><path d=" M 49.778 54.444 L 59.778 62.889 L 67.333 55.778 L 49.778 54.444 Z " fill="rgb(201,231,255)"/><path d=" M 64 58.667 L 66.444 62.444 L 56.667 66 L 64 58.667 Z " fill="rgb(183,199,213)"/><path d=" M 72.889 56.667 L 76.889 34.889 L 57.778 30 L 72.889 56.667 Z " fill="rgb(200,230,255)"/><path d=" M 55.778 0 L 83.111 5.556 L 66.889 13.111 L 55.778 0 Z " fill="rgb(169,216,255)"/><path d=" M 83.111 5.556 L 92 18.444 L 65.333 13.111 L 83.111 5.556 Z " fill="rgb(215,237,255)"/></g></svg>